<svg width="804" height="595" viewBox="0 0 804 595" fill="none" xmlns="http://www.w3.org/2000/svg">
<path d="M360.82 488.2C345.38 491.02 272.97 506.29 287.54 543.2C289.643 548.319 292.991 552.832 297.28 556.33C315.46 571.58 380.61 608.91 569.34 588.55C580.03 587.4 590.76 586.69 601.51 586.49C651.24 585.57 807.51 577.15 803.51 507.95C803.51 507.95 801.44 469.21 707.81 481.08L636.6 476.65C636.6 476.65 476.05 464.27 367.9 486.76C365.57 487.29 363.2 487.77 360.82 488.2Z" fill="#0071F2"/>
<path opacity="0.7" d="M360.82 488.2C345.38 491.02 272.97 506.29 287.54 543.2C289.643 548.319 292.991 552.832 297.28 556.33C315.46 571.58 380.61 608.91 569.34 588.55C580.03 587.4 590.76 586.69 601.51 586.49C651.24 585.57 807.51 577.15 803.51 507.95C803.51 507.95 801.44 469.21 707.81 481.08L636.6 476.65C636.6 476.65 476.05 464.27 367.9 486.76C365.57 487.29 363.2 487.77 360.82 488.2Z" fill="white"/>
<path d="M472.08 478.3C148.26 508.79 102.91 315.63 102.91 315.63C78.1201 248.5 99.4601 204.63 130.57 162.95C161.234 122.027 201.746 89.5204 248.34 68.45C323.24 34.39 374.7 27.45 374.7 27.45C374.7 27.45 591.58 -28.32 704.64 139.7C704.64 139.7 812.64 275.25 742.18 360.84C742.18 360.84 707.04 408.18 614.55 443.73L545.25 464.19C521.37 471.232 496.867 475.957 472.08 478.3V478.3Z" fill="#0071F2"/>
<path opacity="0.7" d="M472.08 478.3C148.26 508.79 102.91 315.63 102.91 315.63C78.1201 248.5 99.4601 204.63 130.57 162.95C161.234 122.027 201.746 89.5204 248.34 68.45C323.24 34.39 374.7 27.45 374.7 27.45C374.7 27.45 591.58 -28.32 704.64 139.7C704.64 139.7 812.64 275.25 742.18 360.84C742.18 360.84 707.04 408.18 614.55 443.73L545.25 464.19C521.37 471.232 496.867 475.957 472.08 478.3V478.3Z" fill="white"/>
<path d="M536.87 162.46H73.6699V511.34H536.87V162.46Z" fill="white"/>
<path d="M536.87 162.46H77.4299V197.88H536.87V162.46Z" fill="#E6E6E6"/>
<path opacity="0.29" d="M201.95 215.06H97.8201V319.19H201.95V215.06Z" fill="#0071F2"/>
<path d="M688.23 325.62H682.86V363.19H688.23V325.62Z" fill="#999999"/>
<path d="M633.89 398.18V510.44H641.53L645.93 392.58L633.89 398.18Z" fill="#CCCCCC"/>
<path d="M680.71 376.08V493.08H688.36L692.52 370.71L680.71 376.08Z" fill="#CCCCCC"/>
<path d="M637.23 390.1L702.18 361.05L672.86 355.96L639.01 341.44L637.23 390.1Z" fill="#CCCCCC"/>
<path d="M625.14 402.25L702.14 366.42V361.05L637.23 390.1C637.23 390.1 629.68 398.36 625.14 402.25Z" fill="#B3B3B3"/>
<path d="M662.46 227.94H703C704.207 227.94 705.364 228.419 706.217 229.273C707.071 230.126 707.55 231.283 707.55 232.49V299.86H662.46V227.94Z" fill="#999999"/>
<path d="M536.34 0.359985H210.54V139.91H536.34V0.359985Z" fill="#0071F2"/>
<path opacity="0.3" d="M332.92 39.01H232.01V104.49H332.92V39.01Z" fill="white"/>
<g opacity="0.3">
<path d="M266.36 87.59C266.218 87.5896 266.078 87.5611 265.948 87.5062C265.817 87.4512 265.699 87.371 265.6 87.27L250.81 72.51C250.616 72.3087 250.507 72.0398 250.507 71.76C250.507 71.4802 250.616 71.2114 250.81 71.01L265.6 55.45C265.795 55.2432 266.064 55.1222 266.348 55.1138C266.632 55.1053 266.908 55.2101 267.115 55.405C267.322 55.6 267.443 55.8691 267.451 56.1532C267.46 56.4373 267.355 56.7132 267.16 56.92L253.09 71.73L267.14 85.73C267.24 85.8295 267.32 85.9479 267.374 86.0783C267.429 86.2088 267.457 86.3487 267.457 86.49C267.457 86.6314 267.429 86.7713 267.374 86.9017C267.32 87.0322 267.24 87.1505 267.14 87.25C267.039 87.3561 266.919 87.4409 266.785 87.4993C266.651 87.5577 266.506 87.5885 266.36 87.59V87.59Z" fill="white"/>
</g>
<g opacity="0.3">
<path d="M297.73 88.6599C297.589 88.6614 297.449 88.6347 297.319 88.5815C297.188 88.5283 297.07 88.4495 296.97 88.3499C296.87 88.2505 296.79 88.1321 296.736 88.0016C296.681 87.8712 296.653 87.7313 296.653 87.5899C296.653 87.4486 296.681 87.3087 296.736 87.1782C296.79 87.0478 296.87 86.9294 296.97 86.8299L310.97 72.8299L297 57.9999C296.887 57.9011 296.795 57.7796 296.732 57.6433C296.668 57.5071 296.633 57.359 296.63 57.2086C296.627 57.0582 296.655 56.9088 296.713 56.77C296.771 56.6312 296.857 56.506 296.967 56.4025C297.076 56.2989 297.205 56.2193 297.347 56.1688C297.489 56.1182 297.639 56.0978 297.789 56.1089C297.939 56.1199 298.085 56.1622 298.218 56.233C298.351 56.3038 298.467 56.4015 298.56 56.5199L313.34 72.0799C313.439 72.1784 313.517 72.2953 313.57 72.424C313.624 72.5527 313.651 72.6906 313.651 72.8299C313.651 72.9693 313.624 73.1072 313.57 73.2359C313.517 73.3646 313.439 73.4815 313.34 73.5799L298.56 88.3499C298.452 88.4579 298.322 88.5414 298.179 88.5949C298.036 88.6484 297.883 88.6705 297.73 88.6599Z" fill="white"/>
</g>
<g opacity="0.3">
<path d="M274.56 87.59C274.373 87.5956 274.189 87.5529 274.024 87.4658C273.858 87.3788 273.719 87.2504 273.618 87.0933C273.517 86.9362 273.459 86.7557 273.449 86.5693C273.439 86.3829 273.477 86.1971 273.56 86.03L287.9 57.85C287.966 57.7239 288.056 57.612 288.164 57.5207C288.273 57.4293 288.399 57.3603 288.535 57.3176C288.67 57.2749 288.813 57.2593 288.955 57.2717C289.096 57.2841 289.234 57.3243 289.36 57.39C289.486 57.4556 289.598 57.5455 289.689 57.6544C289.781 57.7633 289.85 57.8891 289.892 58.0247C289.935 58.1603 289.951 58.3029 289.938 58.4445C289.926 58.5861 289.886 58.7239 289.82 58.85L275.51 87C275.422 87.1764 275.286 87.3248 275.118 87.429C274.951 87.5331 274.757 87.5888 274.56 87.59Z" fill="white"/>
</g>
<path d="M493.39 75.51H423.62C423.353 75.4842 423.105 75.3598 422.924 75.161C422.744 74.9623 422.644 74.7034 422.644 74.435C422.644 74.1665 422.744 73.9077 422.924 73.7089C423.105 73.5102 423.353 73.3858 423.62 73.36H493.39C493.54 73.3455 493.691 73.3625 493.834 73.41C493.977 73.4574 494.108 73.5342 494.22 73.6354C494.331 73.7367 494.42 73.8601 494.481 73.9978C494.542 74.1355 494.574 74.2844 494.574 74.435C494.574 74.5856 494.542 74.7345 494.481 74.8722C494.42 75.0099 494.331 75.1333 494.22 75.2345C494.108 75.3357 493.977 75.4125 493.834 75.46C493.691 75.5074 493.54 75.5245 493.39 75.51V75.51Z" fill="white"/>
<path d="M509.5 88.39H423.62C423.353 88.3642 423.105 88.2398 422.924 88.041C422.744 87.8423 422.644 87.5835 422.644 87.315C422.644 87.0465 422.744 86.7877 422.924 86.5889C423.105 86.3902 423.353 86.2658 423.62 86.24H509.5C509.767 86.2658 510.015 86.3902 510.196 86.5889C510.376 86.7877 510.476 87.0465 510.476 87.315C510.476 87.5835 510.376 87.8423 510.196 88.041C510.015 88.2398 509.767 88.3642 509.5 88.39V88.39Z" fill="white"/>
<path opacity="0.3" d="M487.5 109.86H437.02C432.878 109.86 429.52 113.218 429.52 117.36V118.46C429.52 122.602 432.878 125.96 437.02 125.96H487.5C491.642 125.96 495 122.602 495 118.46V117.36C495 113.218 491.642 109.86 487.5 109.86Z" fill="white"/>
<path opacity="0.3" d="M536.33 0.359985V139.91H210.54C210.54 139.91 265.29 80.81 355.05 65.91C359.15 65.23 363.29 64.79 367.43 64.51C395.41 62.6 526.79 51.18 536.33 0.359985Z" fill="white"/>
<path d="M188 84.09H0.139893V297.71H188V84.09Z" fill="#0071F2"/>
<path opacity="0.3" d="M188 84.09H0.139893V118.44H188V84.09Z" fill="white"/>
<path d="M73.1399 129.18H15.1699V187.15H73.1399V129.18Z" fill="#2F2E41"/>
<path opacity="0.3" d="M133.78 105.03C135.857 105.03 137.54 103.347 137.54 101.27C137.54 99.1934 135.857 97.51 133.78 97.51C131.703 97.51 130.02 99.1934 130.02 101.27C130.02 103.347 131.703 105.03 133.78 105.03Z" fill="white"/>
<path opacity="0.3" d="M153.11 105.03C155.187 105.03 156.87 103.347 156.87 101.27C156.87 99.1934 155.187 97.51 153.11 97.51C151.034 97.51 149.35 99.1934 149.35 101.27C149.35 103.347 151.034 105.03 153.11 105.03Z" fill="white"/>
<path opacity="0.3" d="M172.43 105.03C174.507 105.03 176.19 103.347 176.19 101.27C176.19 99.1934 174.507 97.51 172.43 97.51C170.353 97.51 168.67 99.1934 168.67 101.27C168.67 103.347 170.353 105.03 172.43 105.03Z" fill="white"/>
<path d="M139.69 148.5H85.9999C85.8594 148.5 85.7203 148.472 85.5905 148.419C85.4606 148.365 85.3427 148.286 85.2433 148.187C85.144 148.087 85.0652 147.969 85.0114 147.839C84.9576 147.71 84.9299 147.57 84.9299 147.43C84.9299 147.289 84.9576 147.15 85.0114 147.021C85.0652 146.891 85.144 146.773 85.2433 146.673C85.3427 146.574 85.4606 146.495 85.5905 146.441C85.7203 146.388 85.8594 146.36 85.9999 146.36H139.67C139.954 146.36 140.226 146.473 140.427 146.673C140.627 146.874 140.74 147.146 140.74 147.43C140.74 147.714 140.627 147.986 140.427 148.187C140.226 148.387 139.954 148.5 139.67 148.5H139.69Z" fill="white"/>
<path d="M155.25 161.38H86.55C86.2662 161.38 85.994 161.267 85.7934 161.067C85.5927 160.866 85.48 160.594 85.48 160.31C85.48 160.026 85.5927 159.754 85.7934 159.553C85.994 159.353 86.2662 159.24 86.55 159.24H155.25C155.39 159.24 155.53 159.268 155.659 159.321C155.789 159.375 155.907 159.454 156.007 159.553C156.106 159.653 156.185 159.771 156.239 159.901C156.292 160.03 156.32 160.169 156.32 160.31C156.32 160.45 156.292 160.59 156.239 160.719C156.185 160.849 156.106 160.967 156.007 161.067C155.907 161.166 155.789 161.245 155.659 161.299C155.53 161.352 155.39 161.38 155.25 161.38V161.38Z" fill="white"/>
<path d="M172.43 174.27H86.5499C86.2827 174.244 86.0347 174.12 85.8542 173.921C85.6737 173.722 85.5737 173.463 85.5737 173.195C85.5737 172.927 85.6737 172.668 85.8542 172.469C86.0347 172.27 86.2827 172.146 86.5499 172.12H172.43C172.697 172.146 172.945 172.27 173.126 172.469C173.306 172.668 173.406 172.927 173.406 173.195C173.406 173.463 173.306 173.722 173.126 173.921C172.945 174.12 172.697 174.244 172.43 174.27V174.27Z" fill="white"/>
<path d="M137 243H53.28C53.1301 243.014 52.9789 242.997 52.8359 242.95C52.693 242.903 52.5616 242.826 52.4501 242.725C52.3387 242.623 52.2496 242.5 52.1886 242.362C52.1277 242.224 52.0962 242.076 52.0962 241.925C52.0962 241.774 52.1277 241.625 52.1886 241.488C52.2496 241.35 52.3387 241.227 52.4501 241.125C52.5616 241.024 52.693 240.947 52.8359 240.9C52.9789 240.853 53.1301 240.835 53.28 240.85H137C137.267 240.876 137.515 241 137.696 241.199C137.876 241.398 137.976 241.656 137.976 241.925C137.976 242.193 137.876 242.452 137.696 242.651C137.515 242.85 137.267 242.974 137 243V243Z" fill="white"/>
<path d="M163.84 255.85H26.4399C26.29 255.865 26.1388 255.848 25.9959 255.8C25.8529 255.753 25.7215 255.676 25.6101 255.575C25.4986 255.473 25.4095 255.35 25.3485 255.212C25.2876 255.075 25.2561 254.926 25.2561 254.775C25.2561 254.624 25.2876 254.476 25.3485 254.338C25.4095 254.2 25.4986 254.077 25.6101 253.976C25.7215 253.874 25.8529 253.797 25.9959 253.75C26.1388 253.703 26.29 253.686 26.4399 253.7H163.84C163.99 253.686 164.141 253.703 164.284 253.75C164.427 253.797 164.558 253.874 164.67 253.976C164.781 254.077 164.87 254.2 164.931 254.338C164.992 254.476 165.024 254.624 165.024 254.775C165.024 254.926 164.992 255.075 164.931 255.212C164.87 255.35 164.781 255.473 164.67 255.575C164.558 255.676 164.427 255.753 164.284 255.8C164.141 255.848 163.99 255.865 163.84 255.85V255.85Z" fill="white"/>
<path d="M137.54 268.73H52.74C52.5901 268.744 52.4388 268.727 52.2959 268.68C52.153 268.633 52.0216 268.556 51.9101 268.454C51.7986 268.353 51.7096 268.23 51.6486 268.092C51.5876 267.954 51.5562 267.806 51.5562 267.655C51.5562 267.504 51.5876 267.355 51.6486 267.218C51.7096 267.08 51.7986 266.957 51.9101 266.855C52.0216 266.754 52.153 266.677 52.2959 266.63C52.4388 266.583 52.5901 266.565 52.74 266.58H137.54C137.69 266.565 137.841 266.583 137.984 266.63C138.127 266.677 138.258 266.754 138.37 266.855C138.481 266.957 138.57 267.08 138.631 267.218C138.692 267.355 138.724 267.504 138.724 267.655C138.724 267.806 138.692 267.954 138.631 268.092C138.57 268.23 138.481 268.353 138.37 268.454C138.258 268.556 138.127 268.633 137.984 268.68C137.841 268.727 137.69 268.744 137.54 268.73Z" fill="white"/>
<path opacity="0.3" d="M131.1 204.32H52.74V220.42H131.1V204.32Z" fill="white"/>
<path opacity="0.29" d="M292.12 215.06H225.57V232.24H292.12V215.06Z" fill="#0071F2"/>
<path d="M277.78 249.79H225.57C225.42 249.804 225.269 249.787 225.126 249.74C224.983 249.693 224.852 249.616 224.74 249.515C224.629 249.413 224.54 249.29 224.479 249.152C224.418 249.014 224.386 248.866 224.386 248.715C224.386 248.564 224.418 248.415 224.479 248.278C224.54 248.14 224.629 248.017 224.74 247.915C224.852 247.814 224.983 247.737 225.126 247.69C225.269 247.643 225.42 247.626 225.57 247.64H277.78C277.93 247.626 278.081 247.643 278.224 247.69C278.367 247.737 278.498 247.814 278.61 247.915C278.721 248.017 278.81 248.14 278.871 248.278C278.932 248.415 278.964 248.564 278.964 248.715C278.964 248.866 278.932 249.014 278.871 249.152C278.81 249.29 278.721 249.413 278.61 249.515C278.498 249.616 278.367 249.693 278.224 249.74C278.081 249.787 277.93 249.804 277.78 249.79V249.79Z" fill="#E6E6E6"/>
<path d="M294.8 262.67H225.57C225.286 262.67 225.014 262.557 224.813 262.357C224.613 262.156 224.5 261.884 224.5 261.6C224.5 261.316 224.613 261.044 224.813 260.843C225.014 260.643 225.286 260.53 225.57 260.53H294.8C295.084 260.53 295.356 260.643 295.557 260.843C295.757 261.044 295.87 261.316 295.87 261.6C295.87 261.884 295.757 262.156 295.557 262.357C295.356 262.557 295.084 262.67 294.8 262.67Z" fill="#E6E6E6"/>
<path d="M308.76 275.55H225.57C225.286 275.55 225.014 275.437 224.813 275.237C224.613 275.036 224.5 274.764 224.5 274.48C224.5 274.196 224.613 273.924 224.813 273.723C225.014 273.523 225.286 273.41 225.57 273.41H308.76C309.044 273.41 309.316 273.523 309.517 273.723C309.717 273.924 309.83 274.196 309.83 274.48C309.83 274.764 309.717 275.036 309.517 275.237C309.316 275.437 309.044 275.55 308.76 275.55Z" fill="#E6E6E6"/>
<path d="M348.48 288.44H225.57C225.42 288.454 225.269 288.437 225.126 288.39C224.983 288.342 224.852 288.266 224.74 288.164C224.629 288.063 224.54 287.94 224.479 287.802C224.418 287.664 224.386 287.515 224.386 287.365C224.386 287.214 224.418 287.065 224.479 286.928C224.54 286.79 224.629 286.667 224.74 286.565C224.852 286.464 224.983 286.387 225.126 286.34C225.269 286.292 225.42 286.275 225.57 286.29H348.48C348.747 286.316 348.995 286.44 349.176 286.639C349.356 286.838 349.456 287.096 349.456 287.365C349.456 287.633 349.356 287.892 349.176 288.091C348.995 288.29 348.747 288.414 348.48 288.44V288.44Z" fill="#E6E6E6"/>
<path opacity="0.29" d="M380.15 304.15H225.57V319.18H380.15V304.15Z" fill="#0071F2"/>
<path d="M221.45 356.29H99.4501C99.1829 356.264 98.9348 356.14 98.7543 355.941C98.5739 355.742 98.4739 355.483 98.4739 355.215C98.4739 354.947 98.5739 354.688 98.7543 354.489C98.9348 354.29 99.1829 354.166 99.4501 354.14H221.45C221.6 354.126 221.751 354.143 221.894 354.19C222.037 354.237 222.168 354.314 222.28 354.415C222.391 354.517 222.48 354.64 222.541 354.778C222.602 354.915 222.634 355.064 222.634 355.215C222.634 355.366 222.602 355.514 222.541 355.652C222.48 355.79 222.391 355.913 222.28 356.015C222.168 356.116 222.037 356.193 221.894 356.24C221.751 356.287 221.6 356.304 221.45 356.29V356.29Z" fill="#E6E6E6"/>
<path d="M322.18 356.29H237.91C237.643 356.264 237.395 356.14 237.214 355.941C237.034 355.742 236.934 355.484 236.934 355.215C236.934 354.947 237.034 354.688 237.214 354.489C237.395 354.29 237.643 354.166 237.91 354.14H322.18C322.447 354.166 322.695 354.29 322.876 354.489C323.056 354.688 323.156 354.947 323.156 355.215C323.156 355.484 323.056 355.742 322.876 355.941C322.695 356.14 322.447 356.264 322.18 356.29V356.29Z" fill="#E6E6E6"/>
<path d="M386.59 356.29H357.06C356.793 356.264 356.545 356.14 356.364 355.941C356.184 355.742 356.084 355.484 356.084 355.215C356.084 354.947 356.184 354.688 356.364 354.489C356.545 354.29 356.793 354.166 357.06 354.14H386.59C386.857 354.166 387.105 354.29 387.286 354.489C387.466 354.688 387.566 354.947 387.566 355.215C387.566 355.484 387.466 355.742 387.286 355.941C387.105 356.14 386.857 356.264 386.59 356.29V356.29Z" fill="#E6E6E6"/>
<path opacity="0.29" d="M230.94 352.53H225.57V357.9H230.94V352.53Z" fill="#0071F2"/>
<path opacity="0.29" d="M335.06 352.53H329.69V357.9H335.06V352.53Z" fill="#0071F2"/>
<path d="M347.94 352.53H342.57V357.9H347.94V352.53Z" fill="#CCCCCC"/>
<path d="M192.29 385.16H100C99.7329 385.134 99.4849 385.01 99.3044 384.811C99.1239 384.612 99.0239 384.353 99.0239 384.085C99.0239 383.817 99.1239 383.558 99.3044 383.359C99.4849 383.16 99.7329 383.036 100 383.01H192.32C192.587 383.036 192.835 383.16 193.016 383.359C193.196 383.558 193.296 383.817 193.296 384.085C193.296 384.353 193.196 384.612 193.016 384.811C192.835 385.01 192.587 385.134 192.32 385.16H192.29Z" fill="#E6E6E6"/>
<path d="M258.84 411.37H98.9001C98.7502 411.385 98.599 411.368 98.4561 411.32C98.3131 411.273 98.1817 411.196 98.0703 411.095C97.9588 410.993 97.8697 410.87 97.8087 410.732C97.7478 410.595 97.7163 410.446 97.7163 410.295C97.7163 410.145 97.7478 409.996 97.8087 409.858C97.8697 409.72 97.9588 409.597 98.0703 409.496C98.1817 409.394 98.3131 409.318 98.4561 409.27C98.599 409.223 98.7502 409.206 98.9001 409.22H258.84C258.99 409.206 259.141 409.223 259.284 409.27C259.427 409.318 259.558 409.394 259.67 409.496C259.781 409.597 259.871 409.72 259.931 409.858C259.992 409.996 260.024 410.145 260.024 410.295C260.024 410.446 259.992 410.595 259.931 410.732C259.871 410.87 259.781 410.993 259.67 411.095C259.558 411.196 259.427 411.273 259.284 411.32C259.141 411.368 258.99 411.385 258.84 411.37V411.37Z" fill="#E6E6E6"/>
<path d="M294.27 385.16H224C223.85 385.174 223.699 385.157 223.556 385.11C223.413 385.062 223.282 384.986 223.17 384.884C223.059 384.783 222.97 384.66 222.909 384.522C222.848 384.384 222.816 384.235 222.816 384.085C222.816 383.934 222.848 383.785 222.909 383.648C222.97 383.51 223.059 383.387 223.17 383.285C223.282 383.184 223.413 383.107 223.556 383.06C223.699 383.012 223.85 382.995 224 383.01H294.31C294.577 383.036 294.825 383.16 295.006 383.359C295.186 383.558 295.286 383.816 295.286 384.085C295.286 384.353 295.186 384.612 295.006 384.811C294.825 385.01 294.577 385.134 294.31 385.16H294.27Z" fill="#E6E6E6"/>
<path d="M318.42 411.37H282.42C282.153 411.344 281.905 411.22 281.724 411.021C281.544 410.822 281.444 410.563 281.444 410.295C281.444 410.027 281.544 409.768 281.724 409.569C281.905 409.37 282.153 409.246 282.42 409.22H318.42C318.687 409.246 318.935 409.37 319.116 409.569C319.296 409.768 319.396 410.027 319.396 410.295C319.396 410.563 319.296 410.822 319.116 411.021C318.935 411.22 318.687 411.344 318.42 411.37V411.37Z" fill="#E6E6E6"/>
<path opacity="0.29" d="M201.95 381.4H196.58V386.77H201.95V381.4Z" fill="#0071F2"/>
<path d="M214.83 381.4H209.46V386.77H214.83V381.4Z" fill="#CCCCCC"/>
<path opacity="0.29" d="M265.29 407.61H259.92V412.98H265.29V407.61Z" fill="#0071F2"/>
<path d="M278.17 407.61H272.8V412.98H278.17V407.61Z" fill="#CCCCCC"/>
<path d="M324.32 468.93H267.43C267.163 468.904 266.915 468.78 266.734 468.581C266.554 468.382 266.454 468.123 266.454 467.855C266.454 467.586 266.554 467.328 266.734 467.129C266.915 466.93 267.163 466.806 267.43 466.78H324.32C324.47 466.765 324.621 466.782 324.764 466.83C324.907 466.877 325.038 466.954 325.15 467.055C325.261 467.157 325.35 467.28 325.411 467.418C325.472 467.555 325.504 467.704 325.504 467.855C325.504 468.005 325.472 468.154 325.411 468.292C325.35 468.43 325.261 468.553 325.15 468.654C325.038 468.756 324.907 468.832 324.764 468.88C324.621 468.927 324.47 468.944 324.32 468.93Z" fill="#E6E6E6"/>
<path d="M385 468.93H357.06C356.793 468.904 356.545 468.78 356.364 468.581C356.184 468.382 356.084 468.123 356.084 467.855C356.084 467.586 356.184 467.328 356.364 467.129C356.545 466.93 356.793 466.806 357.06 466.78H385C385.15 466.765 385.301 466.782 385.444 466.83C385.587 466.877 385.718 466.954 385.83 467.055C385.941 467.157 386.03 467.28 386.091 467.418C386.152 467.555 386.184 467.704 386.184 467.855C386.184 468.005 386.152 468.154 386.091 468.292C386.03 468.43 385.941 468.553 385.83 468.654C385.718 468.756 385.587 468.832 385.444 468.88C385.301 468.927 385.15 468.944 385 468.93Z" fill="#E6E6E6"/>
<path d="M336.14 465.17H330.77V470.54H336.14V465.17Z" fill="#CCCCCC"/>
<path opacity="0.29" d="M349.02 465.17H343.65V470.54H349.02V465.17Z" fill="#0071F2"/>
<path d="M385 411.37H344.72C344.453 411.344 344.205 411.22 344.024 411.021C343.844 410.822 343.744 410.564 343.744 410.295C343.744 410.027 343.844 409.768 344.024 409.569C344.205 409.37 344.453 409.246 344.72 409.22H385C385.15 409.206 385.301 409.223 385.444 409.27C385.587 409.318 385.718 409.394 385.83 409.496C385.941 409.597 386.031 409.72 386.091 409.858C386.152 409.996 386.184 410.145 386.184 410.295C386.184 410.446 386.152 410.595 386.091 410.732C386.031 410.87 385.941 410.993 385.83 411.095C385.718 411.196 385.587 411.273 385.444 411.32C385.301 411.368 385.15 411.385 385 411.37V411.37Z" fill="#E6E6E6"/>
<path d="M327.55 407.61H322.18V412.98H327.55V407.61Z" fill="#CCCCCC"/>
<path opacity="0.29" d="M340.43 407.61H335.06V412.98H340.43V407.61Z" fill="#0071F2"/>
<path d="M174 441H100C99.7329 440.974 99.4849 440.85 99.3044 440.651C99.1239 440.452 99.0239 440.194 99.0239 439.925C99.0239 439.657 99.1239 439.398 99.3044 439.199C99.4849 439 99.7329 438.876 100 438.85H174C174.267 438.876 174.515 439 174.696 439.199C174.876 439.398 174.976 439.657 174.976 439.925C174.976 440.194 174.876 440.452 174.696 440.651C174.515 440.85 174.267 440.974 174 441V441Z" fill="#E6E6E6"/>
<path d="M318.42 441H265.82C265.553 440.974 265.305 440.85 265.124 440.651C264.944 440.452 264.844 440.194 264.844 439.925C264.844 439.657 264.944 439.398 265.124 439.199C265.305 439 265.553 438.876 265.82 438.85H318.42C318.687 438.876 318.935 439 319.116 439.199C319.296 439.398 319.396 439.657 319.396 439.925C319.396 440.194 319.296 440.452 319.116 440.651C318.935 440.85 318.687 440.974 318.42 441Z" fill="#E6E6E6"/>
<path d="M385 441H332.38C332.23 441.014 332.079 440.997 331.936 440.95C331.793 440.903 331.662 440.826 331.55 440.725C331.439 440.623 331.35 440.5 331.289 440.362C331.228 440.224 331.196 440.076 331.196 439.925C331.196 439.774 331.228 439.625 331.289 439.488C331.35 439.35 331.439 439.227 331.55 439.125C331.662 439.024 331.793 438.947 331.936 438.9C332.079 438.853 332.23 438.835 332.38 438.85H385C385.15 438.835 385.301 438.853 385.444 438.9C385.587 438.947 385.718 439.024 385.83 439.125C385.941 439.227 386.031 439.35 386.091 439.488C386.152 439.625 386.184 439.774 386.184 439.925C386.184 440.076 386.152 440.224 386.091 440.362C386.031 440.5 385.941 440.623 385.83 440.725C385.718 440.826 385.587 440.903 385.444 440.95C385.301 440.997 385.15 441.014 385 441Z" fill="#E6E6E6"/>
<path d="M181.56 437.26H176.19V442.63H181.56V437.26Z" fill="#CCCCCC"/>
<path opacity="0.29" d="M194.44 437.26H189.07V442.63H194.44V437.26Z" fill="#0071F2"/>
<path d="M206.25 437.26H200.88V442.63H206.25V437.26Z" fill="#CCCCCC"/>
<path d="M225.57 468.93H100C99.7329 468.904 99.4849 468.78 99.3044 468.581C99.1239 468.382 99.0239 468.124 99.0239 467.855C99.0239 467.587 99.1239 467.328 99.3044 467.129C99.4849 466.93 99.7329 466.806 100 466.78H225.6C225.867 466.806 226.115 466.93 226.296 467.129C226.476 467.328 226.576 467.587 226.576 467.855C226.576 468.124 226.476 468.382 226.296 468.581C226.115 468.78 225.867 468.904 225.6 468.93H225.57Z" fill="#E6E6E6"/>
<path d="M233.08 465.17H227.71V470.54H233.08V465.17Z" fill="#CCCCCC"/>
<path opacity="0.29" d="M245.96 465.17H240.59V470.54H245.96V465.17Z" fill="#0071F2"/>
<path d="M257.77 465.17H252.4V470.54H257.77V465.17Z" fill="#CCCCCC"/>
<path opacity="0.29" d="M219.13 437.26H213.76V442.63H219.13V437.26Z" fill="#0071F2"/>
<path d="M234.16 437.26H228.79V442.63H234.16V437.26Z" fill="#CCCCCC"/>
<path opacity="0.29" d="M245.96 437.26H240.59V442.63H245.96V437.26Z" fill="#0071F2"/>
<path d="M258.85 437.26H253.48V442.63H258.85V437.26Z" fill="#CCCCCC"/>
<path d="M386.59 385.16H327C326.85 385.174 326.699 385.157 326.556 385.11C326.413 385.062 326.282 384.986 326.17 384.884C326.059 384.783 325.97 384.66 325.909 384.522C325.848 384.384 325.816 384.235 325.816 384.085C325.816 383.934 325.848 383.785 325.909 383.648C325.97 383.51 326.059 383.387 326.17 383.285C326.282 383.184 326.413 383.107 326.556 383.06C326.699 383.012 326.85 382.995 327 383.01H386.58C386.847 383.036 387.095 383.16 387.276 383.359C387.456 383.558 387.556 383.816 387.556 384.085C387.556 384.353 387.456 384.612 387.276 384.811C387.095 385.01 386.847 385.134 386.58 385.16H386.59Z" fill="#E6E6E6"/>
<path opacity="0.29" d="M305 381.4H299.63V386.77H305V381.4Z" fill="#0071F2"/>
<path d="M317.89 381.4H312.52V386.77H317.89V381.4Z" fill="#CCCCCC"/>
<path d="M123.58 392.18H20.53V456.59H123.58V392.18Z" fill="#0071F2"/>
<g opacity="0.3">
<path d="M57.5 441.36C57.2236 441.36 56.9581 441.253 56.76 441.06L41.26 426.23C41.1553 426.131 41.0719 426.012 41.0149 425.879C40.9579 425.747 40.9285 425.604 40.9285 425.46C40.9285 425.316 40.9579 425.173 41.0149 425.041C41.0719 424.909 41.1553 424.789 41.26 424.69L56.75 409.69C56.8495 409.59 56.9678 409.51 57.0983 409.456C57.2287 409.401 57.3687 409.373 57.51 409.373C57.6513 409.373 57.7912 409.401 57.9217 409.456C58.0521 409.51 58.1705 409.59 58.27 409.69C58.4703 409.892 58.5826 410.165 58.5826 410.45C58.5826 410.735 58.4703 411.008 58.27 411.21L43.57 425.46L58.26 439.52C58.3604 439.62 58.44 439.738 58.4944 439.868C58.5488 439.999 58.5768 440.139 58.5768 440.28C58.5768 440.421 58.5488 440.561 58.4944 440.692C58.44 440.822 58.3604 440.941 58.26 441.04C58.0577 441.241 57.7852 441.356 57.5 441.36V441.36Z" fill="white"/>
</g>
<g opacity="0.3">
<path d="M88.1599 441.36C87.9469 441.359 87.739 441.295 87.5626 441.176C87.3863 441.056 87.2497 440.887 87.1702 440.689C87.0907 440.492 87.072 440.275 87.1165 440.067C87.161 439.858 87.2667 439.668 87.4199 439.52L102.11 425.26L87.4199 411.2C87.2144 411.004 87.0952 410.734 87.0887 410.45C87.0821 410.166 87.1887 409.891 87.3849 409.685C87.5812 409.48 87.8511 409.36 88.1352 409.354C88.4193 409.347 88.6944 409.454 88.8999 409.65L104.4 424.48C104.504 424.58 104.587 424.699 104.643 424.831C104.7 424.964 104.73 425.106 104.73 425.25C104.732 425.395 104.704 425.539 104.649 425.673C104.594 425.807 104.513 425.928 104.41 426.03L88.9099 441.03C88.713 441.234 88.4436 441.353 88.1599 441.36V441.36Z" fill="white"/>
</g>
<g opacity="0.3">
<path d="M65.62 439.41C65.4462 439.41 65.2749 439.369 65.12 439.29C64.9949 439.225 64.8839 439.135 64.7935 439.027C64.7031 438.918 64.6351 438.793 64.5932 438.659C64.5514 438.524 64.5367 438.382 64.5498 438.242C64.563 438.101 64.6038 437.965 64.67 437.84L78.67 411.01C78.7302 410.875 78.8173 410.755 78.926 410.655C79.0347 410.555 79.1626 410.479 79.3019 410.431C79.4411 410.383 79.5888 410.363 79.7358 410.374C79.8828 410.385 80.026 410.426 80.1566 410.495C80.2872 410.563 80.4024 410.657 80.4951 410.772C80.5878 410.886 80.6561 411.019 80.6958 411.161C80.7355 411.303 80.7457 411.451 80.7257 411.597C80.7058 411.743 80.6562 411.884 80.58 412.01L66.58 438.84C66.4888 439.015 66.3507 439.161 66.1811 439.262C66.0115 439.362 65.8172 439.414 65.62 439.41V439.41Z" fill="white"/>
</g>
<path d="M415.57 323.48H403.76V531.73H415.57V323.48Z" fill="#999999"/>
<path opacity="0.1" d="M415.57 323.48H410.2V531.73H415.57V323.48Z" fill="black"/>
<path d="M452.07 324.01H440.26V496.3H452.07V324.01Z" fill="#999999"/>
<path opacity="0.1" d="M452.07 324.01H446.7V496.3H452.07V324.01Z" fill="black"/>
<path d="M709.7 323.48H697.89V531.73H709.7V323.48Z" fill="#999999"/>
<path opacity="0.1" d="M709.7 323.48H704.33V531.73H709.7V323.48Z" fill="black"/>
<path d="M739.76 310.06H727.95V496.31H739.76V310.06Z" fill="#999999"/>
<path opacity="0.1" d="M739.76 310.06H734.39V496.31H739.76V310.06Z" fill="black"/>
<path d="M657.1 227.94H697.63C698.837 227.94 699.994 228.419 700.847 229.273C701.701 230.126 702.18 231.283 702.18 232.49V299.86H657.1V227.94Z" fill="#B3B3B3"/>
<path d="M390.88 320.26L446.27 292.37H755.88L719.36 320.26H390.88Z" fill="#CCCCCC"/>
<path d="M511.11 515.63L478.61 541.05C478.61 541.05 465 553.2 476.76 560.71C476.76 560.71 493.93 571.45 507.89 553.2L527.26 521.56L511.11 515.63Z" fill="#0071F2"/>
<path opacity="0.2" d="M474.61 552.12C482.61 560.8 495.19 558.99 503.06 551.12C506.76 547.33 510.06 542.79 513.58 538.82C516.66 535.2 521.09 530.03 524.23 526.54C521.43 530.28 517.17 535.63 514.23 539.35C510.82 543.47 507.5 548 503.81 551.89C495.6 560 482.36 561.77 474.62 552.15L474.61 552.12Z" fill="black"/>
<path opacity="0.2" d="M481.32 539.74C487.77 539.65 494.63 542.16 498.67 547.37C499.998 549.101 500.948 551.09 501.46 553.21C501.2 552.74 500.95 552.21 500.72 551.78C500.493 551.299 500.222 550.84 499.91 550.41C495.91 544.02 488.47 541.01 481.32 539.74V539.74Z" fill="black"/>
<path opacity="0.2" d="M488.56 536C493.39 535.35 500.28 536.93 501.46 542.4C498.84 537.79 493.36 536.99 488.56 536Z" fill="black"/>
<path opacity="0.2" d="M492.86 531.73C497.68 531.08 504.58 532.66 505.75 538.12C503.14 533.52 497.65 532.72 492.86 531.73Z" fill="black"/>
<path opacity="0.2" d="M501.45 525.29C506.27 524.64 513.17 526.22 514.34 531.68C511.73 527.07 506.24 526.28 501.45 525.29Z" fill="black"/>
<path d="M519.16 500.06L511.16 515.63C511.16 515.63 507.84 519.63 512.41 522.11C513.659 522.775 515.055 523.119 516.47 523.11H524.37C524.945 523.111 525.512 522.974 526.023 522.711C526.534 522.449 526.976 522.068 527.31 521.6L537 507.93C537 507.93 523.41 502.7 519.16 500.06Z" fill="#F9B499"/>
<path d="M517.32 466.23L520.84 476.86L526.18 461.66L517.32 466.23Z" fill="#F9B499"/>
<path d="M679.77 288.4C679.77 296.64 674.27 296.64 674.27 296.64L659.27 302.01C652.59 304.24 649.83 303.9 648.77 303.47C648.55 303.387 648.314 303.353 648.079 303.37C647.844 303.387 647.616 303.455 647.41 303.57C647.388 303.595 647.361 303.616 647.33 303.63C646.173 304.439 644.878 305.032 643.51 305.38V305.38C640.62 305.96 641.03 303.07 641.03 303.07C641.128 302.561 641.195 302.047 641.23 301.53C641.299 299.569 640.785 297.632 639.753 295.964C638.72 294.296 637.216 292.972 635.43 292.16C633.897 291.45 632.3 290.887 630.66 290.48C629.652 290.23 628.598 290.23 627.59 290.48L619.26 292.39H577.39L539 291.27C535.432 268.644 539.881 245.483 551.58 225.79C554.145 221.38 557.097 217.207 560.4 213.32C561.12 212.48 561.54 212.05 561.54 212.05L563.91 208.62C563.91 208.62 595.91 210.76 596.28 209.69C596.65 208.62 618.43 195.69 618.43 195.69L649.19 208.69C650.555 209.292 651.778 210.174 652.78 211.28C659.4 218.13 664.59 234.45 664.59 234.45L678.59 280.61C679.314 283.146 679.711 285.764 679.77 288.4V288.4Z" fill="#0071F2"/>
<path d="M644.8 261C644.8 261 614.06 266 591.05 261.22C590.46 261.1 589.88 260.95 589.3 260.79C580.257 258.407 570.896 257.466 561.56 258L539.5 257.82L538.41 265.12H575.28C575.28 265.12 587.28 265.51 596.98 268.73C596.98 268.73 606.64 271.95 625.98 269.8L647.8 267.14L644.8 261Z" fill="#2F2E41"/>
<path opacity="0.2" d="M652.8 211.21C632.41 213.81 595.91 225.79 595.91 225.79C587.32 219.35 560.42 213.32 560.42 213.32C561.14 212.48 561.56 212.05 561.56 212.05L563.93 208.62C563.93 208.62 595.93 210.76 596.3 209.69C596.67 208.62 618.45 195.69 618.45 195.69L649.21 208.69C650.569 209.271 651.791 210.13 652.8 211.21V211.21Z" fill="black"/>
<path d="M589.1 210.32C588.691 210.428 588.277 210.515 587.86 210.58C580.6 211.86 573.11 208.71 567.12 202.58C561.838 197.034 558.134 190.177 556.39 182.72C551.8 164.14 559.02 146.39 572.51 143.06C586 139.73 600.64 152.06 605.23 170.65C609.82 189.24 602.6 207 589.1 210.32Z" fill="#F9B499"/>
<path d="M608.26 174.27C609.149 174.27 609.87 172.828 609.87 171.05C609.87 169.272 609.149 167.83 608.26 167.83C607.371 167.83 606.65 169.272 606.65 171.05C606.65 172.828 607.371 174.27 608.26 174.27Z" stroke="#FF0000" stroke-width="0.75" stroke-miterlimit="10"/>
<path d="M620.6 166.75C620.6 166.75 637.78 176.2 609.87 184.89C609.545 183.699 609.364 182.474 609.33 181.24C609.289 179.709 609.471 178.179 609.87 176.7L601.28 172.34C601.28 172.34 596.61 173.19 594.11 167.82C594.11 167.82 585.18 167.82 586.25 161.38C586.25 161.38 579.81 165.68 577.66 160.31C577.66 160.31 567.97 167.19 558.33 155.69C558.33 155.69 554.05 163.53 555.33 176.69C555.33 176.69 548.99 181.77 545.4 177.07C544.597 175.974 544.15 174.658 544.12 173.3C544.033 172.166 544.295 171.032 544.871 170.051C545.446 169.07 546.308 168.288 547.34 167.81C547.34 167.81 539.57 164.92 539.78 158.53C539.865 156.882 540.349 155.28 541.19 153.86C541.19 153.86 542.8 149.86 548.82 151.55C549.887 151.872 550.925 152.287 551.92 152.79C551.92 152.79 543.71 135.53 555.32 124.3C555.32 124.3 574.46 104.48 581.98 129.17C581.98 129.17 588.53 119.03 598.98 121.55C599.747 121.733 600.499 121.974 601.23 122.27C601.23 122.27 608.74 124.27 607.67 136.37C607.67 136.37 617.33 128.09 625.92 137.75C625.92 137.75 632.36 145.64 625.92 154.03C626 154.05 629.19 161.38 620.6 166.75Z" fill="#2F2E41"/>
<path opacity="0.2" d="M559.41 153.6C559.41 153.6 556.19 143.14 565.85 136.69C565.85 136.69 572.78 132.18 582.34 138.15C583.298 138.774 584.211 139.466 585.07 140.22C588 142.805 591.754 144.262 595.66 144.33C595.66 144.33 606.66 143.86 608.26 156.33C608.26 156.33 595.91 145.61 586.79 150.79C586.79 150.79 581.96 135.57 569.07 139.86C569.07 139.91 561.56 142.06 559.41 153.6Z" fill="black"/>
<path opacity="0.2" d="M548.79 151.56C543.56 152.49 539.79 158.56 539.79 158.56C539.875 156.912 540.359 155.31 541.2 153.89C541.2 153.89 542.77 149.84 548.79 151.56Z" fill="black"/>
<path opacity="0.2" d="M620.6 166.75C620.6 166.75 637.78 176.2 609.87 184.89C609.385 183.739 609.199 182.483 609.33 181.24C609.407 180.527 609.589 179.83 609.87 179.17L614.16 172.34C617.38 170.41 617.38 165.68 617.38 165.68C619.239 164.938 620.846 163.679 622.01 162.05C622.861 160.875 623.407 159.506 623.597 158.068C623.788 156.629 623.617 155.166 623.1 153.81C620.87 148.13 614.16 149.72 614.16 149.72C616.31 133.72 606.64 138.87 606.64 138.87C605.64 124.35 599.42 121.72 599.03 121.57C599.797 121.753 600.549 121.994 601.28 122.29C601.28 122.29 608.79 124.29 607.72 136.39C607.72 136.39 617.38 128.11 625.97 137.77C625.97 137.77 632.41 145.66 625.97 154.05C626 154.05 629.19 161.38 620.6 166.75Z" fill="black"/>
<path d="M628.11 197.88L601.28 220.65C596.98 224.1 594.84 221.5 594.84 221.5L593.65 219.63L587.86 210.63C608.26 205.98 606.53 179.22 606.53 179.22H609.87C609.323 183.087 610.076 187.027 612.01 190.42C615.92 188.85 621.01 189 623.41 189.19C624.387 189.257 625.355 189.421 626.3 189.68C634.93 192 628.11 197.88 628.11 197.88Z" fill="#F9B499"/>
<path d="M628.11 197.88L601.28 220.65C596.98 224.1 594.84 221.5 594.84 221.5L593.65 219.63C605.34 214.54 616.65 200.8 616.65 200.8C620.71 194.8 614.01 191.27 612.39 190.52C612.362 190.507 612.339 190.487 612.323 190.461C612.306 190.435 612.298 190.405 612.298 190.375C612.298 190.345 612.306 190.315 612.323 190.289C612.339 190.263 612.362 190.243 612.39 190.23C616.25 188.81 621.07 188.96 623.39 189.14C624.367 189.207 625.335 189.371 626.28 189.63C634.93 192 628.11 197.88 628.11 197.88Z" fill="#F7A48B"/>
<path d="M587.86 210.58L590.93 215.39C590.93 215.39 609.59 204.86 605.93 189.03C606 189 604.5 207.18 587.86 210.58Z" fill="#F7A48B"/>
<path d="M568 209.69C574.604 210.713 580.969 212.918 586.79 216.2" stroke="#FF0000" stroke-width="0.75" stroke-miterlimit="10"/>
<path opacity="0.2" d="M679.77 288.4C679.77 296.64 674.27 296.64 674.27 296.64L659.27 302.01C652.59 304.24 649.83 303.9 648.77 303.47C648.55 303.387 648.314 303.353 648.079 303.37C647.844 303.387 647.616 303.455 647.41 303.57C647.77 303.33 649.09 302.11 647.33 298.57L641.7 290.15C641.616 290.021 641.559 289.875 641.533 289.723C641.507 289.571 641.512 289.415 641.549 289.266C641.586 289.116 641.652 288.975 641.745 288.852C641.838 288.729 641.956 288.626 642.09 288.55C642.257 288.455 642.447 288.406 642.64 288.41C642.817 288.409 642.992 288.45 643.15 288.53C643.309 288.61 643.446 288.727 643.55 288.87L650.69 298.8C650.69 298.8 651.76 303.09 665.69 296.65C665.69 296.64 677.75 292 679.77 288.4Z" fill="black"/>
<path opacity="0.2" d="M643.48 305.38C640.59 305.96 641 303.07 641 303.07C641.098 302.561 641.165 302.047 641.2 301.53C641.269 299.569 640.755 297.632 639.722 295.964C638.69 294.296 637.186 292.972 635.4 292.16C633.867 291.45 632.27 290.887 630.63 290.48C630.63 290.48 638.85 286.97 643.14 297.7C643.14 297.71 644.46 302.35 643.48 305.38Z" fill="black"/>
<path opacity="0.2" d="M646.36 279.46C646.36 279.46 632.36 285.35 627.56 290.46L619.23 292.37H577.39L539 291.27C535.432 268.644 539.881 245.483 551.58 225.79C551.88 225.79 560.47 227.94 569.05 258C569.05 258 577.58 289.81 591.05 288.4H614.55C614.55 288.4 635.63 289.13 635.63 275.17V253.7C635.63 253.7 636.28 245.28 639.72 250.57L650.66 273C650.66 273 652.8 277.32 646.36 279.46Z" fill="black"/>
<path opacity="0.2" d="M649.58 214C641.16 220.71 636.81 231.28 636.7 241.91C636.6 240.58 636.43 239.23 636.45 237.91C636.45 228.46 641.34 218.86 649.58 214.02V214Z" fill="black"/>
<path d="M609.87 280C609.729 279.995 609.595 279.934 609.497 279.831C609.4 279.728 609.347 279.592 609.35 279.45L610.42 247.24C610.42 225.95 615.77 210.73 615.82 210.58C615.87 210.446 615.97 210.338 616.099 210.278C616.228 210.218 616.376 210.212 616.51 210.26C616.576 210.283 616.636 210.32 616.688 210.367C616.74 210.414 616.782 210.47 616.811 210.533C616.841 210.597 616.858 210.665 616.861 210.735C616.864 210.805 616.854 210.874 616.83 210.94C616.83 211.09 611.5 226.14 611.5 247.26L610.42 279.48C610.415 279.621 610.354 279.755 610.251 279.852C610.148 279.95 610.012 280.003 609.87 280V280Z" fill="#2F2E41"/>
<path d="M583 283.22C582.859 283.215 582.725 283.154 582.628 283.051C582.53 282.949 582.477 282.812 582.48 282.67L583.56 251.54C583.531 240.186 584.43 228.848 586.25 217.64C586.262 217.571 586.288 217.505 586.326 217.446C586.363 217.386 586.413 217.335 586.47 217.295C586.528 217.255 586.593 217.227 586.662 217.213C586.73 217.198 586.801 217.197 586.87 217.21C587.011 217.237 587.135 217.318 587.215 217.436C587.296 217.554 587.326 217.699 587.3 217.84C585.499 228.986 584.606 240.26 584.63 251.55L583.56 282.7C583.552 282.842 583.49 282.976 583.385 283.073C583.281 283.17 583.143 283.223 583 283.22Z" fill="#2F2E41"/>
<g opacity="0.2">
<path d="M609.87 280C609.729 279.995 609.595 279.934 609.498 279.831C609.4 279.728 609.347 279.592 609.35 279.45L610.42 247.24C610.42 225.95 615.77 210.73 615.82 210.58C615.87 210.446 615.97 210.338 616.099 210.278C616.229 210.218 616.376 210.212 616.51 210.26C616.576 210.283 616.636 210.32 616.688 210.367C616.74 210.414 616.782 210.47 616.812 210.533C616.841 210.597 616.858 210.665 616.861 210.735C616.865 210.805 616.854 210.874 616.83 210.94C616.83 211.09 611.5 226.14 611.5 247.26L610.42 279.48C610.415 279.621 610.354 279.755 610.252 279.852C610.149 279.95 610.012 280.003 609.87 280V280Z" fill="black"/>
<path d="M583 283.22C582.859 283.215 582.725 283.154 582.628 283.051C582.53 282.949 582.477 282.812 582.48 282.67L583.56 251.54C583.531 240.186 584.43 228.848 586.25 217.64C586.262 217.571 586.288 217.505 586.326 217.446C586.363 217.386 586.413 217.335 586.47 217.295C586.528 217.255 586.593 217.227 586.662 217.213C586.73 217.198 586.801 217.197 586.87 217.21C587.011 217.237 587.135 217.318 587.215 217.436C587.296 217.554 587.326 217.699 587.3 217.84C585.499 228.986 584.606 240.26 584.63 251.55L583.56 282.7C583.552 282.842 583.49 282.976 583.385 283.073C583.281 283.17 583.143 283.223 583 283.22Z" fill="black"/>
</g>
<path d="M675.34 327.77C675.34 327.94 675.34 336.53 673.2 353.53L672.86 355.96C672.536 358.37 672.363 360.798 672.34 363.23C672.28 367.07 669.78 374.38 651.04 371.44C651.53 370.61 651.98 369.79 652.4 368.95L652.75 368.27C654.32 365.27 656.44 360.69 657.1 356.75C657.1 356.75 598.1 351.39 578.73 343.87C578.73 343.87 550.43 332.06 539.89 335.82L531.5 342.82C531.5 342.82 523.99 340.67 534.72 327.82L675.34 327.77Z" fill="#0071F2"/>
<path opacity="0.2" d="M657.1 356.75C657.1 356.75 670.9 357.67 670.39 363.75C670.338 364.312 670.167 364.856 669.89 365.347C669.612 365.838 669.234 366.265 668.78 366.6C666.94 368.01 662.53 369.89 652.63 368.49C654.507 364.735 656.005 360.802 657.1 356.75V356.75Z" fill="black"/>
<path opacity="0.2" d="M533.14 341.44C533.14 341.44 526.81 337.44 539.89 335.82L533.14 341.44Z" fill="black"/>
<path d="M657.1 356.75C656.095 360.744 654.636 364.609 652.75 368.27L652.4 368.95C652.17 369.38 651.96 369.76 651.77 370.1C651.58 370.44 651.3 370.99 651.04 371.44C637.74 394.86 609.48 415.88 597.98 423.81C596.463 424.85 595.201 426.219 594.288 427.816C593.376 429.413 592.836 431.195 592.71 433.03C590.33 469.87 573.37 501.67 573.37 501.67C569.76 506.84 564.37 509.33 558.37 510.13C539.27 512.71 513.25 498.45 513.25 498.45L527.25 458.73C539.06 414.73 550.86 401.84 550.86 401.84L577.4 346.72L578.77 343.87C598.06 351.39 657.1 356.75 657.1 356.75Z" fill="#2F2E41"/>
<path opacity="0.2" d="M657.1 356.75C656.095 360.744 654.636 364.609 652.75 368.27L652.4 368.95C652.17 369.38 651.96 369.76 651.77 370.1C651.58 370.44 651.3 370.99 651.04 371.44C637.74 394.86 609.48 415.88 597.98 423.81C596.463 424.85 595.201 426.219 594.288 427.816C593.376 429.413 592.836 431.195 592.71 433.03C590.33 469.87 573.37 501.67 573.37 501.67C569.76 506.84 564.37 509.33 558.37 510.13C578.37 484.41 589.64 427.13 589.64 427.13C588.75 413.8 628.11 379.27 628.11 379.27C643.11 364.27 623.82 359.94 623.82 359.94C606.55 357.22 583.9 349.1 577.36 346.69L578.73 343.84C598.06 351.39 657.1 356.75 657.1 356.75Z" fill="black"/>
<path d="M558.37 386.17L525.06 399.69L538.06 425.69C538.06 425.69 532.52 441.88 526.66 461.45C526.66 461.45 513.24 470.57 499.29 469.5C499.29 469.5 487.48 439.44 481.04 408.31C481.04 408.31 472.45 390.06 487.48 378.25L531 343.05L539.93 335.82C539.93 335.82 546.57 330.99 578.77 343.87L558.37 386.17Z" fill="#2F2E41"/>
<path d="M516.62 488.88L495.35 505.3C493.279 506.929 490.986 508.252 488.54 509.23C485.33 510.48 480.69 513.23 481.7 518.4C481.983 519.752 482.593 521.014 483.477 522.076C484.361 523.138 485.492 523.967 486.77 524.49C489.32 525.55 493.36 526.27 499.3 524.86L511.11 515.63L518.58 501.09L513.25 498.45L516.62 488.88Z" fill="#0071F2"/>
<path opacity="0.2" d="M516.62 488.88L495.35 505.3C493.279 506.929 490.986 508.252 488.54 509.23C485.33 510.48 480.69 513.23 481.7 518.4C481.983 519.752 482.593 521.014 483.477 522.076C484.361 523.138 485.492 523.967 486.77 524.49C489.32 525.55 493.36 526.27 499.3 524.86L511.11 515.63L518.58 501.09L513.25 498.45L516.62 488.88Z" fill="black"/>
<path opacity="0.2" d="M558.37 386.17L525.06 399.69L538.06 425.69C534.714 437.885 530.745 449.901 526.17 461.69C526.17 461.69 513.24 470.57 499.29 469.5C539.01 466.28 520.07 402.28 520.07 402.28C515.69 392.5 522.26 389.63 526.25 388.8C528.798 388.275 531.305 387.567 533.75 386.68L543.81 382.98C547.523 381.652 550.932 379.594 553.837 376.926C556.741 374.259 559.082 371.037 560.72 367.45C561.9 364.816 562.652 362.011 562.95 359.14C563.251 355.831 562.387 352.521 560.506 349.782C558.625 347.043 555.846 345.047 552.65 344.14C544.23 341.66 535.79 342.3 530.95 343.04L539.88 335.81C539.88 335.81 546.52 330.98 578.72 343.86L558.37 386.17Z" fill="black"/>
<path opacity="0.2" d="M481.56 517C489.56 521.49 499.4 520.92 507.56 517.25C508.75 516.74 509.89 516.11 511.1 515.59C510.02 516.32 508.92 517.04 507.8 517.72C499.8 522.25 489.02 522.82 481.55 517H481.56Z" fill="black"/>
<path opacity="0.2" d="M493.65 506.52C497.79 508.36 505.83 513.36 505.75 518.42C505.03 515.61 502.45 513.83 500.4 511.96C498.35 510.09 495.9 508.39 493.65 506.52V506.52Z" fill="black"/>
<path opacity="0.2" d="M499.3 502.25C502.4 502.69 504.82 505.49 505.75 508.35C503.52 506.3 501.75 504.08 499.3 502.25Z" fill="black"/>
<path opacity="0.2" d="M503.32 499.14C504.847 499.54 506.25 500.312 507.405 501.387C508.561 502.462 509.431 503.806 509.94 505.3C507.77 503.11 505.59 501.3 503.32 499.14Z" fill="black"/>
<path opacity="0.2" d="M507.89 495.61C510.436 497.071 512.347 499.427 513.25 502.22C511.151 500.289 509.346 498.062 507.89 495.61V495.61Z" fill="black"/>
<path d="M719.36 320.26H390.88V327.77H719.36V320.26Z" fill="#B3B3B3"/>
<path d="M719.36 320.26V327.77L755.86 298.79L755.88 292.37L719.36 320.26Z" fill="#999999"/>
<path d="M476.76 300.93H574.83L567.5 237.19C567.35 235.817 566.699 234.548 565.671 233.625C564.643 232.703 563.311 232.192 561.93 232.19H471.93C471.514 232.197 471.105 232.291 470.728 232.465C470.35 232.639 470.013 232.89 469.738 233.201C469.462 233.512 469.254 233.877 469.127 234.273C469 234.669 468.957 235.087 469 235.5L476.76 300.93Z" fill="#0071F2"/>
<path opacity="0.3" d="M574.83 300.93H476.76L469 235.54C468.957 235.125 469.001 234.705 469.129 234.308C469.257 233.911 469.467 233.545 469.744 233.234C470.022 232.922 470.361 232.672 470.741 232.499C471.121 232.326 471.533 232.235 471.95 232.23H561.95C563.329 232.234 564.659 232.746 565.684 233.669C566.71 234.591 567.36 235.859 567.51 237.23L574.83 300.93Z" fill="white"/>
<path opacity="0.3" d="M552.53 232.23L476.76 297.71L475.12 285.04L536.52 232.23H552.53Z" fill="white"/>
<path opacity="0.3" d="M486.07 300.93L565.62 233.62C566.64 234.557 567.304 235.819 567.5 237.19L567.88 240.53L496.79 300.93H486.07Z" fill="white"/>
<path d="M571.22 300.93H476.76V307.37H571.22V300.93Z" fill="#0071F2"/>
<path d="M600.71 300.93H571.22V307.37H600.71V300.93Z" fill="#0071F2"/>
<path opacity="0.2" d="M600.71 300.93H571.22V307.37H600.71V300.93Z" fill="black"/>
<path d="M388.73 309.52H435.38L468.97 289.94H428.85L388.73 309.52Z" fill="white"/>
<path d="M435.38 309.52H388.73V314.17H435.38V309.52Z" fill="#E6E6E6"/>
<path d="M468.97 289.94V295.8L435.38 314.17V309.52L468.97 289.94Z" fill="#CCCCCC"/>
<path opacity="0.1" d="M468.97 289.94V295.8L435.38 314.17V309.52L468.97 289.94Z" fill="black"/>
<path d="M627.56 290.46C627.56 290.46 614.09 292.33 606.61 302.54C606.61 302.54 596.56 311.69 606.43 310.07C606.43 310.07 606.9 314.75 614.82 311.6C614.82 311.6 616.19 314.91 624.82 310.07C624.82 310.07 633.46 305.23 640.98 303.07C641 303.08 644.17 290.71 627.56 290.46Z" fill="#F9B499"/>
<path d="M615 299.86C612.739 303.716 609.849 307.167 606.45 310.07C608.717 306.218 611.606 302.768 615 299.86Z" fill="#F7A48B"/>
<path d="M614.82 311.6C616.521 308.535 618.856 305.869 621.67 303.78C619.967 306.843 617.632 309.509 614.82 311.6V311.6Z" fill="#F7A48B"/>
<path d="M607.72 179.63C611.277 179.63 614.16 176.026 614.16 171.58C614.16 167.134 611.277 163.53 607.72 163.53C604.163 163.53 601.28 167.134 601.28 171.58C601.28 176.026 604.163 179.63 607.72 179.63Z" fill="#F9B499"/>
<path d="M609.87 184.89C609.87 184.89 622.07 179.96 634.11 181.17C640.845 181.905 647.044 185.185 651.44 190.34C656.29 195.94 662.98 205.44 655.82 208.64C654.655 209.124 653.398 209.345 652.138 209.288C650.878 209.231 649.646 208.897 648.53 208.31C643.53 205.82 630.62 201.4 600.74 220.96L628.11 197.88C628.11 197.88 634.6 191.4 624.61 189.35C623.747 189.182 622.869 189.098 621.99 189.1C618.62 189.158 615.267 189.584 611.99 190.37C611.99 190.37 609.87 186.93 609.87 184.89Z" fill="#0071F2"/>
<path opacity="0.3" d="M609.87 184.89C609.87 184.89 622.07 179.96 634.11 181.17C640.845 181.905 647.044 185.185 651.44 190.34C656.29 195.94 662.98 205.44 655.82 208.64C654.655 209.124 653.398 209.345 652.138 209.288C650.878 209.231 649.646 208.897 648.53 208.31C643.53 205.82 630.62 201.4 600.74 220.96L628.11 197.88C628.11 197.88 634.6 191.4 624.61 189.35C623.747 189.182 622.869 189.098 621.99 189.1C618.62 189.158 615.267 189.584 611.99 190.37C611.99 190.37 609.87 186.93 609.87 184.89Z" fill="white"/>
<path opacity="0.3" d="M643.14 190.37C637.41 197.32 629.66 202.43 621.89 206.86C620.74 207.44 619.61 208.06 618.45 208.62C626.81 202.7 635.45 197.21 643.14 190.37Z" fill="white"/>
<path opacity="0.3" d="M652.8 194.66C648 200 640.85 202.84 633.89 204C640.36 201.43 647.15 198.76 652.8 194.65V194.66Z" fill="white"/>
<path d="M594.84 221.5C590.4 218.83 573.48 214.7 567.76 213.35C566.65 213.103 565.524 212.936 564.39 212.85C559.58 212.4 560.49 209.69 560.49 209.69C560.49 205.4 567.12 202.6 567.12 202.6C573.12 208.71 580.6 211.86 587.86 210.6L594.84 221.5Z" fill="#0071F2"/>
<path opacity="0.3" d="M594.84 221.5C590.4 218.83 573.48 214.7 567.76 213.35C566.65 213.103 565.524 212.936 564.39 212.85C559.58 212.4 560.49 209.69 560.49 209.69C560.49 205.4 567.12 202.6 567.12 202.6C573.12 208.71 580.6 211.86 587.86 210.6L594.84 221.5Z" fill="white"/>
<path d="M520.23 275.17C524.676 275.17 528.28 271.566 528.28 267.12C528.28 262.674 524.676 259.07 520.23 259.07C515.784 259.07 512.18 262.674 512.18 267.12C512.18 271.566 515.784 275.17 520.23 275.17Z" fill="white"/>
</svg>
